<svg width="224" height="111" viewBox="0 0 224 111" fill="none" xmlns="http://www.w3.org/2000/svg">
<path d="M102.343 55H60C57.7909 55 56 56.7909 56 59V101.343C56 104.907 51.6914 106.691 49.1716 104.172L1.17157 56.1716C0.421427 55.4214 0 54.404 0 53.3431V4C0 1.79086 1.79086 0 4 0H55.3431C56.404 0 57.4214 0.421428 58.1716 1.17157L105.172 48.1716C107.691 50.6914 105.907 55 102.343 55Z" fill="white"/>
<path d="M214.343 55H172C169.791 55 168 56.7909 168 59V101.343C168 104.907 163.691 106.691 161.172 104.172L113.172 56.1716C112.421 55.4214 112 54.404 112 53.3431V4C112 1.79086 113.791 0 116 0H167.343C168.404 0 169.421 0.421428 170.172 1.17157L217.172 48.1716C219.691 50.6914 217.907 55 214.343 55Z" fill="white"/>
</svg>
