<svg width="336" height="222" viewBox="0 0 336 222" fill="none" xmlns="http://www.w3.org/2000/svg">
<path d="M102.343 55H60C57.7909 55 56 56.7909 56 59V101.343C56 104.907 51.6914 106.691 49.1716 104.172L1.17157 56.1716C0.421427 55.4214 0 54.404 0 53.3431V4C0 1.79086 1.79086 0 4 0H55.3431C56.404 0 57.4214 0.421428 58.1716 1.17157L105.172 48.1716C107.691 50.6914 105.907 55 102.343 55Z" fill="#9EF287"/>
<path d="M143.657 167H186C188.209 167 190 165.209 190 163V120.657C190 117.093 194.309 115.309 196.828 117.828L244.828 165.828C245.579 166.579 246 167.596 246 168.657V218C246 220.209 244.209 222 242 222H190.657C189.596 222 188.579 221.579 187.828 220.828L140.828 173.828C138.309 171.309 140.093 167 143.657 167Z" fill="#9EF287"/>
<path d="M214.343 55H172C169.791 55 168 56.7909 168 59V101.343C168 104.907 163.691 106.691 161.172 104.172L113.172 56.1716C112.421 55.4214 112 54.404 112 53.3431V4C112 1.79086 113.791 0 116 0H167.343C168.404 0 169.421 0.421428 170.172 1.17157L217.172 48.1716C219.691 50.6914 217.907 55 214.343 55Z" fill="#9EF287"/>
<path d="M31.6569 167H74C76.2091 167 78 165.209 78 163V120.657C78 117.093 82.3086 115.309 84.8284 117.828L132.828 165.828C133.579 166.579 134 167.596 134 168.657V218C134 220.209 132.209 222 130 222H78.6569C77.596 222 76.5786 221.579 75.8284 220.828L28.8284 173.828C26.3086 171.309 28.0932 167 31.6569 167Z" fill="#9EF287"/>
<path d="M326.343 55H284C281.791 55 280 56.7909 280 59V101.343C280 104.907 275.691 106.691 273.172 104.172L225.172 56.1716C224.421 55.4214 224 54.404 224 53.3431V4C224 1.79086 225.791 0 228 0H279.343C280.404 0 281.421 0.421428 282.172 1.17157L329.172 48.1716C331.691 50.6914 329.907 55 326.343 55Z" fill="#9EF287"/>
</svg>
